<?xml version="1.0" standalone="no"?>
<!DOCTYPE svg PUBLIC "-//W3C//DTD SVG 20010904//EN"
 "http://www.w3.org/TR/2001/REC-SVG-20010904/DTD/svg10.dtd">
<svg version="1.0" xmlns="http://www.w3.org/2000/svg"
 width="32.000000pt" height="32.000000pt" viewBox="0 0 32.000000 32.000000"
 preserveAspectRatio="xMidYMid meet">

<g transform="translate(0.000000,32.000000) scale(0.100000,-0.100000)"
fill="#000000" stroke="none">
<path d="M52 143 l3 -88 105 0 105 0 3 88 3 87 -111 0 -111 0 3 -87z m116 10
c-5 -21 -15 -42 -20 -48 -8 -7 -9 -4 -4 10 4 11 10 32 13 48 3 15 9 27 13 27
5 0 4 -17 -2 -37z m-46 5 c-8 -8 -9 -15 -1 -25 13 -14 9 -16 -15 -7 -19 7 -21
30 -3 37 22 10 31 7 19 -5z m92 6 c14 -5 24 -34 12 -34 -2 0 -13 -3 -23 -7
-15 -6 -16 -4 -6 8 10 12 10 18 1 27 -13 13 -8 15 16 6z"/>
</g>
</svg>
